<svg role="img" aria-hidden="true" aria-label="Google Research logo" xmlns="http://www.w3.org/2000/svg" width="170.58" height="24">
  <title>Google Research</title>
  <g fill="#5F6368"><path d="M82 1.79h5.61c2.74 0 5.15 2.02 5.15 4.9 0 2.35-1.75 4.25-3.93 4.71l-.05.07 4.62 6.69v.09h-2.5l-4.44-6.67h-2.35v6.67H82V1.79zm5.52 7.82c1.63 0 3.08-1.2 3.08-2.92 0-1.31-1.06-2.87-2.94-2.87h-3.54v5.79h3.4zM93.97 12.62c0-3.27 2.14-6 5.56-6 3.36 0 5.47 2.37 5.47 6 0 .16-.02.39-.02.39h-8.85c.07 2.53 2.02 3.68 3.63 3.68 1.56 0 2.53-.9 3.17-2.02l1.89.92c-.87 1.66-2.62 3.04-5.15 3.04-3.3-.01-5.7-2.54-5.7-6.01zm5.52-4.07c-1.63 0-2.85 1.1-3.2 2.71h6.46c-.06-.98-.77-2.71-3.26-2.71zM106.09 15.4l1.89-.8c.6 1.45 1.79 2.14 2.94 2.14 1.45 0 2.37-.74 2.37-1.47 0-.71-.44-1.29-2.18-1.72l-1.66-.41c-1.31-.34-3.04-1.17-3.04-3.1 0-2.25 2.12-3.4 4.46-3.4 1.82 0 3.7.9 4.39 2.62l-1.89.78c-.48-1.06-1.63-1.52-2.67-1.52-.92 0-2.14.51-2.14 1.43 0 .71.53 1.08 1.82 1.38l1.7.44c2.32.55 3.36 1.82 3.36 3.38 0 1.88-1.82 3.5-4.53 3.5-2.57-.03-4.2-1.61-4.82-3.25zM116.52 12.62c0-3.27 2.14-6 5.56-6 3.36 0 5.47 2.37 5.47 6 0 .16-.02.39-.02.39h-8.85c.07 2.53 2.02 3.68 3.63 3.68 1.56 0 2.53-.9 3.17-2.02l1.89.92c-.87 1.66-2.62 3.04-5.15 3.04-3.31-.01-5.7-2.54-5.7-6.01zm5.52-4.07c-1.63 0-2.85 1.1-3.2 2.71h6.46c-.07-.98-.78-2.71-3.26-2.71zM138.65 11.31v6.94h-2.02v-1.56h-.09c-.62.94-1.75 1.93-3.5 1.93-2.46 0-4.37-1.66-4.37-3.86 0-2.46 2.07-3.82 4.85-3.82 1.59 0 2.67.44 3.1.69v-.48c0-1.56-1.47-2.64-2.92-2.64-1.2 0-2.09.44-2.8 1.5l-1.86-1.17c.99-1.4 2.53-2.21 4.55-2.21 3.15-.01 5.06 1.78 5.06 4.68zm-2.03 2.12s-1.01-.78-2.76-.78c-1.79 0-3.01.99-3.01 2.16 0 1.22 1.26 1.93 2.34 1.93 1.71 0 3.43-1.47 3.43-3.31zM141 18.26V6.99h2.02v1.84h.09c.46-1.29 2.12-2.16 3.29-2.16.69 0 1.15.09 1.56.28L147.32 9c-.32-.12-.71-.16-1.24-.16-1.59 0-2.97 1.49-2.97 3.22v6.21H141zM148.15 12.62c0-3.43 2.41-6 5.79-6 2.69 0 4.25 1.59 4.94 3.24l-1.93.81c-.55-1.33-1.59-2.12-3.15-2.12-1.79 0-3.54 1.63-3.54 4.07s1.75 4.07 3.54 4.07c1.56 0 2.71-.8 3.26-2.12l1.89.81c-.69 1.66-2.32 3.24-5.01 3.24-3.38 0-5.79-2.6-5.79-6zM162.72 6.99l-.09 1.56h.09c.6-1.03 2.02-1.93 3.56-1.93 3.01 0 4.3 1.91 4.3 4.55v7.08h-2.12v-6.76c0-2.21-1.22-2.94-2.69-2.94-1.84 0-3.06 1.84-3.06 3.56v6.14h-2.12V1.79h2.12v5.2z"/></g><path fill="#4285F4" d="M9.49 18.62C4.33 18.62 0 14.44 0 9.31 0 4.18 4.33 0 9.49 0c2.85 0 4.88 1.11 6.41 2.57l-1.8 1.79C13 3.34 11.52 2.54 9.49 2.54c-3.76 0-6.71 3.02-6.71 6.77 0 3.75 2.94 6.77 6.71 6.77 2.44 0 3.83-.98 4.72-1.86.73-.73 1.21-1.77 1.39-3.2H9.49V8.47h8.6c.09.45.14 1 .14 1.59 0 1.91-.53 4.27-2.21 5.95-1.65 1.7-3.75 2.61-6.53 2.61z"/><path fill="#EA4335" d="M31.52 12.62c0 3.45-2.67 5.99-5.93 5.99s-5.93-2.54-5.93-5.99c0-3.47 2.67-5.99 5.93-5.99s5.93 2.52 5.93 5.99zm-2.6 0c0-2.16-1.55-3.63-3.34-3.63s-3.34 1.48-3.34 3.63c0 2.13 1.55 3.63 3.34 3.63s3.34-1.49 3.34-3.63z"/><path fill="#FBBC04" d="M44.83 12.62c0 3.45-2.66 5.99-5.93 5.99-3.27 0-5.93-2.54-5.93-5.99 0-3.47 2.66-5.99 5.93-5.99 3.26 0 5.93 2.52 5.93 5.99zm-2.6 0c0-2.16-1.55-3.63-3.34-3.63-1.79 0-3.34 1.48-3.34 3.63 0 2.13 1.55 3.63 3.34 3.63 1.79.01 3.34-1.49 3.34-3.63z"/><path fill="#4285F4" d="M57.8 6.99v10.76c0 4.43-2.62 6.24-5.72 6.24-2.92 0-4.68-1.95-5.34-3.54l2.3-.95c.41.98 1.41 2.13 3.03 2.13 1.98 0 3.22-1.23 3.22-3.52v-.86h-.09c-.59.73-1.73 1.36-3.17 1.36-3.01 0-5.77-2.61-5.77-5.97 0-3.38 2.76-6.02 5.77-6.02 1.44 0 2.58.64 3.17 1.34h.09v-.97h2.51zm-2.33 5.66c0-2.11-1.41-3.66-3.22-3.66-1.82 0-3.35 1.54-3.35 3.66 0 2.09 1.53 3.61 3.35 3.61 1.81 0 3.22-1.52 3.22-3.61z"/><path fill="#34A853" d="M62.43.64v17.62h-2.65V.64h2.65z"/><path fill="#EA4335" d="M72.83 14.6l2.05 1.36c-.66.98-2.26 2.66-5.02 2.66-3.42 0-5.89-2.63-5.89-5.99 0-3.56 2.49-5.99 5.6-5.99 3.12 0 4.65 2.47 5.15 3.81l.28.68-8.05 3.32c.62 1.2 1.57 1.82 2.92 1.82 1.34-.01 2.28-.67 2.96-1.67zm-6.31-2.16l5.38-2.22c-.3-.75-1.19-1.27-2.24-1.27-1.34 0-3.21 1.18-3.14 3.49z"/>
</svg>
